<svg width="40" height="40" viewBox="0 0 40 40" fill="none" xmlns="http://www.w3.org/2000/svg">
<path d="M20.0502 21.1382L9.66351 31.5582C9.48017 31.7415 9.27684 31.8332 9.05351 31.8332C8.83017 31.8332 8.62629 31.7415 8.44184 31.5582C8.2574 31.3749 8.16573 31.171 8.16684 30.9465C8.16795 30.7221 8.26017 30.5187 8.44351 30.3365L24.6535 14.1665H17.5002V16.6665C17.5002 16.9032 17.4202 17.101 17.2602 17.2599C17.1002 17.4188 16.9018 17.4988 16.6652 17.4999C16.4285 17.501 16.2307 17.421 16.0718 17.2599C15.913 17.0988 15.8335 16.901 15.8335 16.6665V13.8615C15.8335 13.4638 15.9624 13.1376 16.2202 12.8832C16.478 12.6287 16.798 12.501 17.1802 12.4999H25.3268C25.688 12.4999 26.0324 12.5721 26.3602 12.7165C26.688 12.861 26.9718 13.0549 27.2118 13.2982L31.8285 17.8715C32.5118 18.5549 33.2641 19.111 34.0852 19.5399C34.9063 19.9688 35.7902 20.2449 36.7368 20.3682C36.9924 20.4082 37.2146 20.511 37.4035 20.6765C37.5924 20.8432 37.6868 21.0504 37.6868 21.2982C37.6868 21.546 37.583 21.7476 37.3752 21.9032C37.1685 22.0588 36.9463 22.1199 36.7085 22.0865C35.5441 21.9621 34.4607 21.6399 33.4585 21.1199C32.4563 20.5999 31.5324 19.9188 30.6868 19.0765L28.5702 16.9432L23.3968 22.0832L25.7335 24.4515C26.0591 24.7771 26.1924 25.1515 26.1335 25.5749C26.0746 25.9982 25.8518 26.3276 25.4652 26.5632L18.4585 30.5865C18.2618 30.7021 18.0457 30.7315 17.8102 30.6749C17.5757 30.6182 17.4013 30.491 17.2868 30.2932C17.1724 30.0954 17.1485 29.8787 17.2152 29.6432C17.2818 29.4099 17.4185 29.236 17.6252 29.1215L24.2318 25.3182L20.0502 21.1382ZM7.50017 20.8332C7.26351 20.8332 7.06573 20.7532 6.90684 20.5932C6.74795 20.4332 6.66795 20.2349 6.66684 19.9982C6.66573 19.7615 6.74573 19.5637 6.90684 19.4049C7.06795 19.246 7.26573 19.1665 7.50017 19.1665H12.5002C12.7368 19.1665 12.9346 19.2465 13.0935 19.4065C13.2524 19.5665 13.3324 19.7649 13.3335 20.0015C13.3346 20.2382 13.2546 20.436 13.0935 20.5949C12.9324 20.7538 12.7346 20.8332 12.5002 20.8332H7.50017ZM4.16684 15.8332C3.93017 15.8332 3.7324 15.7532 3.57351 15.5932C3.41462 15.4332 3.33462 15.2349 3.33351 14.9982C3.3324 14.7615 3.4124 14.5637 3.57351 14.4049C3.73462 14.246 3.9324 14.1665 4.16684 14.1665H9.16684C9.40351 14.1665 9.60129 14.2465 9.76017 14.4065C9.91906 14.5665 9.99906 14.7649 10.0002 15.0015C10.0013 15.2382 9.92129 15.436 9.76017 15.5949C9.59906 15.7538 9.40129 15.8332 9.16684 15.8332H4.16684ZM32.4585 12.4999C31.7552 12.4999 31.1557 12.2515 30.6602 11.7549C30.1646 11.2571 29.9168 10.6593 29.9168 9.96153C29.9168 9.26375 30.1646 8.66819 30.6602 8.17486C31.1557 7.68153 31.7552 7.43542 32.4585 7.43653C33.1618 7.43764 33.7613 7.68597 34.2568 8.18153C34.7524 8.67931 35.0002 9.27708 35.0002 9.97486C35.0002 10.6726 34.7524 11.2682 34.2568 11.7615C33.7613 12.2549 33.1618 12.501 32.4585 12.4999ZM7.50017 10.8332C7.26351 10.8332 7.06573 10.7532 6.90684 10.5932C6.74795 10.4332 6.66795 10.2349 6.66684 9.99819C6.66573 9.76153 6.74573 9.56375 6.90684 9.40486C7.06795 9.24597 7.26573 9.16653 7.50017 9.16653H12.5002C12.7368 9.16653 12.9346 9.24653 13.0935 9.40653C13.2524 9.56653 13.3324 9.76486 13.3335 10.0015C13.3346 10.2382 13.2546 10.436 13.0935 10.5949C12.9324 10.7537 12.7346 10.8332 12.5002 10.8332H7.50017Z" fill="#059669"/>
</svg>
