<svg width="18" height="18" viewBox="0 0 18 18" fill="none" xmlns="http://www.w3.org/2000/svg">
<g clip-path="url(#clip0_25_1135)">
<path fill-rule="evenodd" clip-rule="evenodd" d="M2.96052 5.0695C3.04568 4.86391 3.18989 4.68819 3.37492 4.56457C3.55995 4.44094 3.77749 4.37497 4.00002 4.375H11.5C12.9919 4.375 14.4226 4.96763 15.4775 6.02252C16.5324 7.07742 17.125 8.50816 17.125 10C17.125 11.4918 16.5324 12.9226 15.4775 13.9775C14.4226 15.0324 12.9919 15.625 11.5 15.625H4.75002C4.45165 15.625 4.1655 15.5065 3.95453 15.2955C3.74355 15.0845 3.62502 14.7984 3.62502 14.5C3.62502 14.2016 3.74355 13.9155 3.95453 13.7045C4.1655 13.4935 4.45165 13.375 4.75002 13.375H11.5C12.3951 13.375 13.2536 13.0194 13.8865 12.3865C14.5194 11.7536 14.875 10.8951 14.875 10C14.875 9.10489 14.5194 8.24645 13.8865 7.61351C13.2536 6.98058 12.3951 6.625 11.5 6.625H6.71577L7.42077 7.33C7.6256 7.54227 7.73886 7.82651 7.73616 8.12148C7.73346 8.41645 7.61501 8.69856 7.40633 8.90704C7.19764 9.11553 6.91542 9.23371 6.62045 9.23614C6.32548 9.23856 6.04135 9.12503 5.82927 8.92L3.20427 6.295C3.04706 6.1377 2.94 5.93732 2.89661 5.7192C2.85323 5.50108 2.87547 5.27499 2.96052 5.0695Z" fill="white"/>
</g>
<defs>
<clipPath id="clip0_25_1135">
<rect width="18" height="18" fill="white"/>
</clipPath>
</defs>
</svg>
