<svg width="35" height="25" viewBox="0 0 35 25" fill="none" xmlns="http://www.w3.org/2000/svg">
<path d="M16.7167 13.7017L6.33001 24.1217C6.14668 24.305 5.94335 24.3967 5.72001 24.3967C5.49668 24.3967 5.29279 24.305 5.10835 24.1217C4.9239 23.9383 4.83223 23.7345 4.83335 23.51C4.83446 23.2856 4.92668 23.0822 5.11001 22.9L21.32 6.73H14.1667V9.23C14.1667 9.46667 14.0867 9.66445 13.9267 9.82334C13.7667 9.98223 13.5683 10.0622 13.3317 10.0633C13.095 10.0644 12.8972 9.98445 12.7383 9.82334C12.5795 9.66223 12.5 9.46445 12.5 9.23V6.425C12.5 6.02723 12.6289 5.70112 12.8867 5.44667C13.1445 5.19223 13.4645 5.06445 13.8467 5.06334H21.9933C22.3545 5.06334 22.6989 5.13556 23.0267 5.28C23.3545 5.42445 23.6383 5.61834 23.8783 5.86167L28.495 10.435C29.1783 11.1183 29.9306 11.6744 30.7517 12.1033C31.5728 12.5322 32.4567 12.8083 33.4033 12.9317C33.6589 12.9717 33.8811 13.0744 34.07 13.24C34.2589 13.4067 34.3533 13.6139 34.3533 13.8617C34.3533 14.1094 34.2495 14.3111 34.0417 14.4667C33.835 14.6222 33.6128 14.6833 33.375 14.65C32.2106 14.5256 31.1272 14.2033 30.125 13.6833C29.1228 13.1633 28.1989 12.4822 27.3533 11.64L25.2367 9.50667L20.0633 14.6467L22.4 17.015C22.7256 17.3406 22.8589 17.715 22.8 18.1383C22.7411 18.5617 22.5183 18.8911 22.1317 19.1267L15.125 23.15C14.9283 23.2656 14.7122 23.295 14.4767 23.2383C14.2422 23.1817 14.0678 23.0544 13.9533 22.8567C13.8389 22.6589 13.815 22.4422 13.8817 22.2067C13.9483 21.9733 14.085 21.7994 14.2917 21.685L20.8983 17.8817L16.7167 13.7017ZM4.16668 13.3967C3.93001 13.3967 3.73223 13.3167 3.57335 13.1567C3.41446 12.9967 3.33446 12.7983 3.33335 12.5617C3.33223 12.325 3.41223 12.1272 3.57335 11.9683C3.73446 11.8094 3.93223 11.73 4.16668 11.73H9.16668C9.40334 11.73 9.60112 11.81 9.76001 11.97C9.9189 12.13 9.9989 12.3283 10 12.565C10.0011 12.8017 9.92112 12.9994 9.76001 13.1583C9.5989 13.3172 9.40112 13.3967 9.16668 13.3967H4.16668ZM0.833345 8.39667C0.596678 8.39667 0.3989 8.31667 0.240012 8.15667C0.0811226 7.99667 0.00112253 7.79834 1.14155e-05 7.56167C-0.0010997 7.325 0.0789004 7.12723 0.240012 6.96834C0.401123 6.80945 0.5989 6.73 0.833345 6.73H5.83335C6.07001 6.73 6.26779 6.81 6.42668 6.97C6.58557 7.13 6.66557 7.32834 6.66668 7.56501C6.66779 7.80167 6.58779 7.99945 6.42668 8.15834C6.26557 8.31723 6.06779 8.39667 5.83335 8.39667H0.833345ZM29.125 5.06334C28.4217 5.06334 27.8222 4.815 27.3267 4.31834C26.8311 3.82056 26.5833 3.22278 26.5833 2.525C26.5833 1.82723 26.8311 1.23167 27.3267 0.738338C27.8222 0.245004 28.4217 -0.00110737 29.125 3.74531e-06C29.8283 0.00111486 30.4278 0.249448 30.9233 0.745004C31.4189 1.24278 31.6667 1.84056 31.6667 2.53834C31.6667 3.23612 31.4189 3.83167 30.9233 4.325C30.4278 4.81834 29.8283 5.06445 29.125 5.06334ZM4.16668 3.39667C3.93001 3.39667 3.73223 3.31667 3.57335 3.15667C3.41446 2.99667 3.33446 2.79834 3.33335 2.56167C3.33223 2.325 3.41223 2.12723 3.57335 1.96834C3.73446 1.80945 3.93223 1.73 4.16668 1.73H9.16668C9.40334 1.73 9.60112 1.81 9.76001 1.97C9.9189 2.13 9.9989 2.32834 10 2.565C10.0011 2.80167 9.92112 2.99945 9.76001 3.15834C9.5989 3.31723 9.40112 3.39667 9.16668 3.39667H4.16668Z" fill="white"/>
</svg>
